<svg width="157" height="120" viewBox="0 0 157 120" fill="none" xmlns="http://www.w3.org/2000/svg">
  <path d="M60.9731 17.897C61.6311 15.2151 64.3385 13.5744 67.0204 14.2323L126.293 28.7729C128.975 29.4308 130.616 32.1383 129.958 34.8202L113.022 103.855C112.364 106.537 109.657 108.177 106.975 107.519L47.7025 92.9788C45.0206 92.3209 43.3798 89.6134 44.0377 86.9315L60.9731 17.897Z" fill="white"/>
  <path fill-rule="evenodd" clip-rule="evenodd" d="M125.816 30.7153L66.5439 16.1747C64.9348 15.7799 63.3103 16.7644 62.9155 18.3735L45.9801 87.408C45.5854 89.0172 46.5698 90.6417 48.179 91.0364L107.452 105.577C109.061 105.972 110.685 104.987 111.08 103.378L128.015 34.3437C128.41 32.7345 127.426 31.1101 125.816 30.7153ZM67.0204 14.2323C64.3385 13.5744 61.6311 15.2151 60.9731 17.897L44.0377 86.9315C43.3798 89.6134 45.0206 92.3209 47.7025 92.9788L106.975 107.519C109.657 108.177 112.364 106.537 113.022 103.855L129.958 34.8202C130.616 32.1383 128.975 29.4308 126.293 28.7729L67.0204 14.2323Z" fill="#C3C6CD"/>
  <path d="M64.7428 25.0318C65.4007 22.3499 68.1081 20.7091 70.79 21.367L119.65 33.3532C122.332 34.0112 123.972 36.7186 123.315 39.4005L109.253 96.7207C108.595 99.4026 105.888 101.043 103.206 100.385L54.3458 88.3992C51.6639 87.7413 50.0232 85.0338 50.6811 82.3519L64.7428 25.0318Z" fill="white"/>
  <path fill-rule="evenodd" clip-rule="evenodd" d="M119.173 35.2956L70.3135 23.3095C68.7044 22.9147 67.0799 23.8992 66.6852 25.5083L52.6235 82.8284C52.2287 84.4376 53.2132 86.0621 54.8223 86.4568L103.682 98.443C105.291 98.8377 106.916 97.8533 107.31 96.2441L121.372 38.924C121.767 37.3149 120.782 35.6904 119.173 35.2956ZM70.79 21.367C68.1081 20.7091 65.4007 22.3499 64.7428 25.0318L50.6811 82.3519C50.0232 85.0338 51.6639 87.7413 54.3458 88.3992L103.206 100.385C105.888 101.043 108.595 99.4026 109.253 96.7207L123.315 39.4005C123.972 36.7186 122.332 34.0112 119.65 33.3532L70.79 21.367Z" fill="#C3C6CD"/>
  <path fill-rule="evenodd" clip-rule="evenodd" d="M81.9759 14.4503L76.6295 13.1387L73.1172 27.4563L114.117 37.5144L117.63 23.1968L112.283 21.8852C112.47 19.1826 111.551 16.388 109.633 13.934C107.319 10.9725 103.74 8.74969 99.684 7.75464C95.6279 6.7596 91.4267 7.07377 88.0046 8.62806C85.169 9.916 83.0609 11.968 81.9759 14.4503Z" fill="white"/>
  <path fill-rule="evenodd" clip-rule="evenodd" d="M81.9759 14.4503L76.6295 13.1387L73.1172 27.4563L114.117 37.5144L117.63 23.1968L112.283 21.8852C112.47 19.1826 111.551 16.388 109.633 13.934C107.319 10.9725 103.74 8.74969 99.684 7.75464C95.6279 6.7596 91.4267 7.07377 88.0046 8.62806C85.169 9.916 83.0609 11.968 81.9759 14.4503ZM115.211 24.6627L110.172 23.4265L110.288 21.7471C110.436 19.6022 109.714 17.2849 108.057 15.1654C106.05 12.597 102.879 10.5978 99.2075 9.69705C95.5359 8.79633 91.7995 9.10106 88.8317 10.449C86.3826 11.5614 84.6696 13.2812 83.8085 15.2513L83.1343 16.7938L78.0954 15.5576L75.5361 25.9904L112.652 35.0955L115.211 24.6627Z" fill="#C3C6CD"/>
  <path fill-rule="evenodd" clip-rule="evenodd" d="M54.1992 0.354242C54.6715 0.0680071 55.2864 0.218861 55.5727 0.691183L60.7297 9.20091C61.0159 9.67323 60.8651 10.2882 60.3927 10.5744C59.9204 10.8606 59.3055 10.7098 59.0193 10.2375L53.8622 1.72773C53.576 1.25541 53.7269 0.640476 54.1992 0.354242Z" fill="#C3C6CD"/>
  <path fill-rule="evenodd" clip-rule="evenodd" d="M67.4811 1.59683C67.9936 1.80282 68.242 2.38522 68.036 2.89765L65.5114 9.17796C65.3054 9.69039 64.723 9.93881 64.2106 9.73282C63.6982 9.52684 63.4497 8.94444 63.6557 8.43201L66.1803 2.1517C66.3863 1.63927 66.9687 1.39084 67.4811 1.59683Z" fill="#C3C6CD"/>
  <path fill-rule="evenodd" clip-rule="evenodd" d="M57.5127 13.9849C57.3834 14.5219 56.8434 14.8524 56.3064 14.7232L49.7256 13.1395C49.1886 13.0102 48.8581 12.4702 48.9873 11.9332C49.1165 11.3963 49.6566 11.0658 50.1935 11.195L56.7744 12.7787C57.3114 12.9079 57.6419 13.448 57.5127 13.9849Z" fill="#C3C6CD"/>
  <path d="M139.131 66.2469C139.33 65.9343 139.744 65.8416 140.056 66.0398C140.369 66.238 140.461 66.6521 140.263 66.9646L135.957 73.7553C135.759 74.0679 135.345 74.1605 135.032 73.9623C134.719 73.7641 134.627 73.3501 134.825 73.0376L139.131 66.2469Z" fill="#C3C6CD"/>
  <path d="M141.298 71.5884C141.611 71.7866 141.704 72.2007 141.505 72.5132C141.307 72.8257 140.893 72.9184 140.581 72.7202L133.79 68.4137C133.477 68.2155 133.385 67.8015 133.583 67.489C133.781 67.1764 134.195 67.0837 134.508 67.282L141.298 71.5884Z" fill="#C3C6CD"/>
  <path fill-rule="evenodd" clip-rule="evenodd" d="M138.92 66.113C139.193 65.6839 139.761 65.5566 140.19 65.8287C140.619 66.1009 140.747 66.6694 140.474 67.0985L138.814 69.7169L141.432 71.3773C141.861 71.6495 141.989 72.218 141.717 72.6471C141.444 73.0763 140.876 73.2035 140.447 72.9314L137.828 71.2709L136.168 73.8892C135.896 74.3184 135.327 74.4456 134.898 74.1735C134.469 73.9014 134.342 73.3329 134.614 72.9037L136.274 70.2854L133.656 68.6249C133.227 68.3527 133.1 67.7842 133.372 67.3551C133.644 66.926 134.212 66.7987 134.642 67.0709L137.26 68.7313L138.92 66.113ZM136.992 69.1536L134.374 67.4931C134.178 67.3689 133.918 67.427 133.794 67.6229C133.67 67.8188 133.728 68.0784 133.924 68.2026L136.542 69.8631L136.992 69.1536ZM136.964 70.1309L137.414 69.4214L138.124 69.8713L137.674 70.5809L136.964 70.1309ZM136.697 70.5532L135.036 73.1715C134.912 73.3674 134.97 73.627 135.166 73.7513C135.362 73.8755 135.621 73.8174 135.746 73.6215L137.406 71.0031L136.697 70.5532ZM138.096 70.8487L140.715 72.5091C140.91 72.6334 141.17 72.5753 141.294 72.3794C141.419 72.1834 141.36 71.9239 141.164 71.7996L138.546 70.1391L138.096 70.8487ZM138.392 69.4491L137.682 68.9991L139.343 66.3808C139.467 66.1848 139.726 66.1267 139.922 66.251C140.118 66.3752 140.176 66.6348 140.052 66.8307L138.392 69.4491Z" fill="#C3C6CD"/>
  <path d="M37.207 41.013C37.2952 40.6536 37.6581 40.4337 38.0175 40.5219C38.3769 40.61 38.5968 40.9729 38.5086 41.3323L36.5928 49.1419C36.5046 49.5013 36.1418 49.7212 35.7824 49.633C35.4229 49.5449 35.203 49.182 35.2912 48.8226L37.207 41.013Z" fill="#C3C6CD"/>
  <path d="M40.9644 45.3846C41.3238 45.4727 41.5437 45.8356 41.4555 46.195C41.3673 46.5544 41.0045 46.7743 40.6451 46.6862L32.8355 44.7703C32.4761 44.6822 32.2562 44.3193 32.3443 43.9599C32.4325 43.6005 32.7954 43.3806 33.1548 43.4687L40.9644 45.3846Z" fill="#C3C6CD"/>
  <path fill-rule="evenodd" clip-rule="evenodd" d="M36.9643 40.9531C37.0853 40.4596 37.5836 40.1576 38.0771 40.2787C38.5706 40.3998 38.8725 40.898 38.7515 41.3915L38.0128 44.4027L41.0239 45.1414C41.5175 45.2625 41.8194 45.7607 41.6983 46.2542C41.5773 46.7477 41.079 47.0497 40.5855 46.9286L37.5743 46.1899L36.8356 49.2011C36.7146 49.6946 36.2163 49.9965 35.7228 49.8755C35.2293 49.7544 34.9274 49.2562 35.0484 48.7626L35.7871 45.7515L32.7759 45.0128C32.2824 44.8917 31.9805 44.3935 32.1016 43.8999C32.2226 43.4064 32.7208 43.1045 33.2144 43.2256L36.2256 43.9643L36.9643 40.9531ZM36.1064 44.4499L33.0952 43.7112C32.8699 43.6559 32.6424 43.7937 32.5872 44.0191C32.5319 44.2444 32.6697 44.4719 32.8951 44.5272L35.9063 45.2659L36.1064 44.4499ZM36.3919 45.385L36.592 44.569L37.408 44.7692L37.2078 45.5852L36.3919 45.385ZM36.2727 45.8706L35.534 48.8818C35.4788 49.1071 35.6166 49.3346 35.8419 49.3899C36.0673 49.4451 36.2947 49.3073 36.35 49.082L37.0887 46.0708L36.2727 45.8706ZM37.6935 45.7043L40.7046 46.443C40.93 46.4983 41.1574 46.3604 41.2127 46.1351C41.268 45.9098 41.1301 45.6823 40.9048 45.627L37.8936 44.8883L37.6935 45.7043ZM37.5272 44.2836L36.7112 44.0834L37.4499 41.0722C37.5051 40.8469 37.7326 40.709 37.9579 40.7643C38.1833 40.8196 38.3211 41.0471 38.2659 41.2724L37.5272 44.2836Z" fill="#C3C6CD"/>
  <path d="M4.18572 94.3604C3.99342 94.0442 4.09386 93.6319 4.41007 93.4396C4.72627 93.2473 5.13849 93.3478 5.33078 93.664L9.50903 100.534C9.70133 100.851 9.60088 101.263 9.28468 101.455C8.96848 101.647 8.55626 101.547 8.36396 101.231L4.18572 94.3604Z" fill="#C3C6CD"/>
  <path d="M9.93438 94.7857C10.2506 94.5934 10.6628 94.6939 10.8551 95.0101C11.0474 95.3263 10.947 95.7385 10.6308 95.9308L3.76037 100.109C3.44417 100.301 3.03195 100.201 2.83965 99.8847C2.64735 99.5685 2.7478 99.1563 3.064 98.964L9.93438 94.7857Z" fill="#C3C6CD"/>
  <path fill-rule="evenodd" clip-rule="evenodd" d="M3.97212 94.49C3.70808 94.0558 3.84599 93.4898 4.28016 93.2258C4.71433 92.9617 5.28034 93.0996 5.54438 93.5338L7.15542 96.1829L9.80447 94.5718C10.2386 94.3078 10.8047 94.4457 11.0687 94.8799C11.3327 95.314 11.1948 95.88 10.7607 96.1441L8.11159 97.7551L9.72263 100.404C9.98667 100.838 9.84875 101.404 9.41458 101.668C8.98041 101.932 8.4144 101.795 8.15036 101.36L6.53933 98.7113L3.89027 100.322C3.4561 100.586 2.89009 100.448 2.62605 100.014C2.36201 99.5801 2.49992 99.0141 2.93409 98.7501L5.58315 97.139L3.97212 94.49ZM5.84295 97.5662L3.1939 99.1773C2.99566 99.2978 2.9327 99.5563 3.05325 99.7545C3.17381 99.9527 3.43223 100.016 3.63047 99.8951L6.27952 98.2841L5.84295 97.5662ZM6.70673 98.0243L6.27016 97.3064L6.98802 96.8699L7.42459 97.5877L6.70673 98.0243ZM6.96653 98.4515L8.57756 101.101C8.69812 101.299 8.95655 101.362 9.15478 101.241C9.35301 101.121 9.41598 100.862 9.29542 100.664L7.68439 98.0149L6.96653 98.4515ZM7.85179 97.3279L10.5008 95.7169C10.6991 95.5963 10.762 95.3379 10.6415 95.1397C10.5209 94.9414 10.2625 94.8785 10.0643 94.999L7.41522 96.6101L7.85179 97.3279ZM6.72821 96.4427L6.01035 96.8792L4.39932 94.2302C4.27876 94.0319 4.34173 93.7735 4.53996 93.653C4.7382 93.5324 4.99662 93.5954 5.11718 93.7936L6.72821 96.4427Z" fill="#C3C6CD"/>
  <path fill-rule="evenodd" clip-rule="evenodd" d="M4.7837 57.622C5.86749 57.8878 6.96162 57.2248 7.22749 56.141C7.49336 55.0572 6.83031 53.9631 5.74652 53.6972C4.66272 53.4313 3.5686 54.0944 3.30273 55.1782C3.03685 56.262 3.69991 57.3561 4.7837 57.622ZM4.30719 59.5644C6.46375 60.0934 8.64085 58.774 9.1699 56.6175C9.69894 54.4609 8.37958 52.2838 6.22302 51.7548C4.06647 51.2257 1.88936 52.5451 1.36032 54.7017C0.831281 56.8582 2.15064 59.0353 4.30719 59.5644Z" fill="#C3C6CD"/>
  <path fill-rule="evenodd" clip-rule="evenodd" d="M148.184 20.0966C149.268 20.3624 150.362 19.6994 150.628 18.6156C150.894 17.5318 150.231 16.4377 149.147 16.1718C148.063 15.9059 146.969 16.569 146.703 17.6528C146.437 18.7366 147.1 19.8307 148.184 20.0966ZM147.707 22.039C149.864 22.568 152.041 21.2487 152.57 19.0921C153.099 16.9355 151.78 14.7584 149.623 14.2294C147.467 13.7004 145.29 15.0197 144.761 17.1763C144.231 19.3328 145.551 21.5099 147.707 22.039Z" fill="#C3C6CD"/>
  <path fill-rule="evenodd" clip-rule="evenodd" d="M152.224 116.469C152.948 116.647 153.679 116.204 153.857 115.479C154.035 114.755 153.592 114.024 152.867 113.846C152.143 113.668 151.412 114.112 151.234 114.836C151.056 115.56 151.499 116.292 152.224 116.469ZM151.747 118.412C153.544 118.853 155.359 117.753 155.799 115.956C156.24 114.159 155.141 112.345 153.344 111.904C151.547 111.463 149.732 112.562 149.292 114.359C148.851 116.157 149.95 117.971 151.747 118.412Z" fill="#C3C6CD"/>
  <path fill-rule="evenodd" clip-rule="evenodd" d="M92.5504 65.1469C92.0724 65.5468 91.9736 66.2162 92.3298 66.642L123.289 103.645C123.365 103.736 123.454 103.808 123.554 103.861L123.504 103.902L134.571 107.749L132.738 96.1774L132.688 96.2186C132.653 96.1115 132.598 96.0105 132.523 95.9204L101.563 58.9169C101.207 58.4912 100.53 58.4703 100.052 58.8703L92.5504 65.1469Z" fill="white"/>
  <path fill-rule="evenodd" clip-rule="evenodd" d="M93.4069 65.3045C93.265 65.4232 93.2462 65.6345 93.365 65.7764L124.325 102.78C124.35 102.811 124.38 102.835 124.411 102.853C124.458 102.881 124.5 102.914 124.538 102.951L133.673 106.644L131.651 97.0006C131.621 96.9566 131.596 96.9087 131.577 96.8578C131.564 96.824 131.546 96.7909 131.52 96.76L100.56 59.7565C100.441 59.6146 100.23 59.5958 100.088 59.7145L93.4069 65.3045ZM132.67 96.0659C132.633 96.0087 132.592 95.9533 132.548 95.9L101.588 58.8965C100.994 58.1869 99.9377 58.093 99.2281 58.6867L92.547 64.2766C91.8374 64.8703 91.7434 65.9268 92.3371 66.6364L123.297 103.64C123.341 103.693 123.389 103.743 123.438 103.79C123.512 103.923 123.629 104.029 123.774 104.088L134.336 108.357C134.565 108.45 134.827 108.409 135.017 108.25C135.207 108.091 135.294 107.841 135.243 107.598L132.904 96.4494C132.872 96.2961 132.788 96.1615 132.67 96.0659Z" fill="#C3C6CD"/>
  <path fill-rule="evenodd" clip-rule="evenodd" d="M124.564 102.596C124.612 102.625 124.658 102.658 124.7 102.694L133.264 106.155L131.368 97.1152C131.34 97.0671 131.316 97.0162 131.296 96.9631C131.295 96.9607 131.293 96.9575 131.29 96.953L100.33 59.9495C100.318 59.9346 100.296 59.9327 100.281 59.9451L93.5995 65.535C93.5846 65.5474 93.5827 65.5695 93.5951 65.5844L124.555 102.588C124.558 102.592 124.561 102.594 124.564 102.596ZM124.538 102.952C124.5 102.915 124.458 102.882 124.411 102.854C124.38 102.836 124.35 102.811 124.325 102.78L93.365 65.7769C93.2463 65.635 93.265 65.4237 93.407 65.3049L100.088 59.715C100.23 59.5963 100.441 59.6151 100.56 59.757L131.52 96.7605C131.546 96.7914 131.564 96.8244 131.577 96.8583C131.596 96.9092 131.621 96.9571 131.651 97.001L133.673 106.644L124.538 102.952ZM132.67 96.0664C132.788 96.162 132.872 96.2966 132.904 96.4499L135.243 107.599C135.294 107.841 135.207 108.092 135.017 108.25C134.827 108.409 134.565 108.45 134.336 108.358L123.775 104.089C123.629 104.03 123.512 103.923 123.438 103.79C123.389 103.744 123.341 103.694 123.297 103.64L92.3371 66.6369C91.7434 65.9273 91.8374 64.8707 92.547 64.277L99.2282 58.6871C99.9378 58.0934 100.994 58.1874 101.588 58.897L132.548 95.9005C132.592 95.9538 132.633 96.0092 132.67 96.0664ZM123.201 103.978C123.154 103.932 123.109 103.884 123.067 103.833L92.107 66.8294C91.407 65.9927 91.5178 64.747 92.3545 64.047L99.0357 58.457C99.8723 57.757 101.118 57.8678 101.818 58.7045L132.778 95.708C132.82 95.7589 132.86 95.8116 132.897 95.8657C133.048 96.0013 133.155 96.1832 133.198 96.3883L135.536 107.537C135.61 107.888 135.484 108.251 135.21 108.48C134.935 108.71 134.556 108.77 134.223 108.636L123.662 104.367C123.468 104.288 123.308 104.151 123.201 103.978Z" fill="#C3C6CD"/>
  <path fill-rule="evenodd" clip-rule="evenodd" d="M123.851 102.819C123.617 102.533 123.659 102.111 123.945 101.876L131.316 95.8456C131.603 95.6113 132.025 95.6535 132.259 95.9399C132.494 96.2264 132.452 96.6485 132.165 96.8829L124.794 102.914C124.508 103.148 124.085 103.106 123.851 102.819Z" fill="#C3C6CD"/>
  <path fill-rule="evenodd" clip-rule="evenodd" d="M123.619 103.009C123.28 102.594 123.341 101.983 123.755 101.644L131.127 95.6127C131.541 95.2734 132.152 95.3346 132.492 95.7492C132.831 96.1639 132.77 96.7751 132.355 97.1143L124.984 103.145C124.569 103.484 123.958 103.423 123.619 103.009ZM123.945 101.876C123.659 102.11 123.617 102.532 123.851 102.819C124.086 103.105 124.508 103.147 124.794 102.913L132.165 96.8821C132.452 96.6478 132.494 96.2256 132.259 95.9392C132.025 95.6528 131.603 95.6105 131.316 95.8449L123.945 101.876Z" fill="#C3C6CD"/>
  <path fill-rule="evenodd" clip-rule="evenodd" d="M96.9231 60.6145L94.9882 58.302C94.3909 57.588 93.3279 57.4935 92.6139 58.0908C91.9 58.6882 91.8054 59.7512 92.4028 60.4651L94.3376 62.7777L92.8037 64.0611L90.8688 61.7485C89.5627 60.1874 89.7694 57.863 91.3305 56.5569C92.8916 55.2508 95.216 55.4575 96.5222 57.0186L98.457 59.3312L96.9231 60.6145Z" fill="#C3C6CD"/>
  <path fill-rule="evenodd" clip-rule="evenodd" d="M99.0489 56.215L96.6533 58.2193L95.7933 57.1914L98.1889 55.1871C99.8427 53.8034 102.146 53.8322 103.333 55.2514L110.654 64.0006C111.834 65.411 111.954 67.4905 110.963 69.3328L109.678 68.8247C110.388 67.5042 110.302 66.0137 109.456 65.0027L102.136 56.2535C101.423 55.402 100.041 55.3848 99.0489 56.215Z" fill="#C3C6CD"/>
  <path fill-rule="evenodd" clip-rule="evenodd" d="M96.6157 58.6423L95.3707 57.1543L97.9964 54.9575C99.743 53.4962 102.243 53.4813 103.563 55.0593L110.884 63.8086C112.155 65.3287 112.266 67.5442 111.228 69.4754L111.101 69.7104L109.254 68.9802L109.414 68.6831C110.076 67.4515 109.98 66.097 109.226 65.1957L101.905 56.4465C101.326 55.7538 100.141 55.6929 99.2414 56.4455L96.6157 58.6423ZM109.811 68.5552C110.373 67.3053 110.244 65.9458 109.456 65.0032L102.136 56.254C101.423 55.4025 100.041 55.3852 99.0488 56.2154L96.6533 58.2198L95.7933 57.1919L98.1889 55.1876C99.8427 53.8039 102.146 53.8327 103.333 55.2519L110.653 64.0011C111.834 65.4115 111.954 67.491 110.963 69.3333L109.678 68.8252C109.726 68.7359 109.77 68.6459 109.811 68.5552Z" fill="#C3C6CD"/>
  <path fill-rule="evenodd" clip-rule="evenodd" d="M53.7015 117.571C71.2805 117.571 85.531 103.171 85.531 85.4067C85.531 67.6427 71.2805 53.2422 53.7015 53.2422C36.1226 53.2422 21.872 67.6427 21.872 85.4067C21.872 94.9071 25.9481 103.446 32.4293 109.334C30.3998 112.007 26.2363 114.05 23.8824 114.891C29.8103 119.831 37.1417 117.184 40.7906 114.815C44.7366 116.587 49.1053 117.571 53.7015 117.571Z" fill="white"/>
  <path fill-rule="evenodd" clip-rule="evenodd" d="M53.7015 54.2422C36.6847 54.2422 22.872 68.1851 22.872 85.4067C22.872 94.6154 26.8217 102.888 33.1018 108.593L33.7794 109.209L33.2259 109.938C32.1002 111.421 30.4287 112.678 28.7907 113.658C27.8209 114.238 26.8374 114.735 25.9409 115.136C28.2669 116.542 30.7458 116.862 33.0795 116.6C35.9194 116.281 38.5181 115.098 40.2462 113.976L40.7032 113.68L41.2002 113.903C45.0201 115.618 49.2494 116.571 53.7015 116.571C70.7183 116.571 84.531 102.628 84.531 85.4067C84.531 68.1851 70.7183 54.2422 53.7015 54.2422ZM20.872 85.4067C20.872 67.1004 35.5605 52.2422 53.7015 52.2422C71.8426 52.2422 86.531 67.1004 86.531 85.4067C86.531 103.713 71.8426 118.571 53.7015 118.571C49.1513 118.571 44.8152 117.636 40.8733 115.944C38.966 117.1 36.2743 118.254 33.3028 118.587C30.0584 118.952 26.4555 118.337 23.2422 115.659L21.897 114.538L23.5461 113.949C24.6669 113.549 26.2363 112.855 27.7643 111.941C29.0047 111.2 30.1708 110.341 31.0498 109.412C24.7793 103.372 20.872 94.8488 20.872 85.4067Z" fill="#C3C6CD"/>
  <path d="M54.1723 93.0149C53.1189 93.3472 51.9797 92.7654 51.7422 91.6867C51.4863 90.5246 51.3859 89.5169 51.441 88.6633C51.5202 87.3539 51.9275 86.1148 52.6627 84.946C53.398 83.7772 53.9128 82.7611 54.2073 81.8975C54.5111 81.016 54.5285 80.1492 54.2598 79.2971C53.6051 77.2219 52.3959 76.4625 50.6321 77.0189C49.818 77.2757 49.2553 77.7856 48.944 78.5487C48.844 78.7938 48.7755 79.0532 48.7384 79.3269C48.5927 80.4011 48.1002 81.5121 47.0663 81.8382L43.9714 82.8145C42.9107 83.1491 41.7549 82.5546 41.6107 81.4517C41.3558 79.5025 41.6813 77.7526 42.5872 76.202C43.784 74.1321 45.9021 72.6178 48.9414 71.6591C51.967 70.7046 54.5308 70.6741 56.6326 71.5675C58.748 72.4566 60.2175 74.2068 61.0412 76.818C61.401 77.9586 61.5045 79.0669 61.3515 80.1426C61.1985 81.2184 60.7807 82.4004 60.0981 83.6886L58.4534 86.6326C57.9923 87.4883 57.7412 88.3003 57.7002 89.0688C57.6851 89.3197 57.6892 89.587 57.7126 89.8708C57.8014 90.9515 57.2613 92.0405 56.2272 92.3667L54.1723 93.0149Z" fill="white"/>
  <path fill-rule="evenodd" clip-rule="evenodd" d="M60.0981 83.6883L58.4534 86.6324C57.9923 87.488 57.7412 88.3001 57.7002 89.0685C57.6851 89.3194 57.6892 89.5867 57.7126 89.8706C57.8014 90.9513 57.2613 92.0402 56.2272 92.3664L54.1723 93.0146C53.1189 93.3469 51.9797 92.7651 51.7422 91.6864C51.4863 90.5244 51.3859 89.5166 51.441 88.6631C51.5202 87.3537 51.9275 86.1146 52.6627 84.9458C53.398 83.777 53.9128 82.7608 54.2073 81.8973C54.5111 81.0157 54.5285 80.1489 54.2597 79.2968C53.6051 77.2216 52.3959 76.4622 50.6321 77.0186C49.818 77.2754 49.2553 77.7853 48.944 78.5484C48.844 78.7935 48.7755 79.0529 48.7384 79.3266C48.5927 80.4008 48.1002 81.5118 47.0663 81.8379L43.9714 82.8142C42.9107 83.1488 41.7549 82.5543 41.6107 81.4514C41.3558 79.5022 41.6813 77.7524 42.5872 76.2018C43.784 74.1318 45.9021 72.6175 48.9414 71.6588C51.967 70.7044 54.5308 70.6739 56.6326 71.5672C58.748 72.4564 60.2175 74.2065 61.0412 76.8177C61.401 77.9584 61.5044 79.0666 61.3515 80.1424C61.1985 81.2181 60.7807 82.4001 60.0981 83.6883ZM57.4113 69.7251C54.7274 68.5856 51.6424 68.7096 48.3397 69.7515C44.9872 70.809 42.3789 72.5691 40.858 75.1968C39.7089 77.1658 39.3212 79.3678 39.6276 81.7107C39.9644 84.287 42.5678 85.3541 44.5731 84.7216L47.668 83.7453C49.8626 83.053 50.5474 80.8699 50.7202 79.5954C50.7357 79.4816 50.7622 79.3863 50.7959 79.3038C50.8734 79.1139 50.9635 79.0112 51.2337 78.926C51.4919 78.8445 51.6445 78.8386 51.7147 78.8434C51.7706 78.8472 51.787 78.8575 51.7975 78.8641C51.8362 78.8884 52.0961 79.086 52.3524 79.8985C52.4864 80.3232 52.4871 80.7505 52.3164 81.2458L52.3144 81.2517C52.0886 81.9137 51.66 82.7838 50.9698 83.8808C50.0662 85.3172 49.5461 86.8773 49.4449 88.5382C49.3746 89.6352 49.5075 90.8385 49.789 92.1165C50.3066 94.4673 52.7262 95.5679 54.774 94.922L56.8289 94.2738C58.9926 93.5912 59.8486 91.4427 59.7059 89.7067C59.6893 89.5051 59.6879 89.3333 59.6966 89.1885L59.6974 89.1752C59.7189 88.7709 59.8555 88.2499 60.2073 87.5937L61.8549 84.6444L61.8652 84.6248C62.6215 83.1977 63.1371 81.792 63.3316 80.4239C63.5307 79.0232 63.3892 77.6129 62.9486 76.216C61.9862 73.1653 60.1717 70.8867 57.4113 69.7251Z" fill="#C3C6CD"/>
  <path d="M61.4076 100.485C61.4076 102.89 59.4575 104.84 57.052 104.84C54.6465 104.84 52.6964 102.89 52.6964 100.485C52.6964 98.079 54.6465 96.1289 57.052 96.1289C59.4575 96.1289 61.4076 98.079 61.4076 100.485Z" fill="white"/>
  <path fill-rule="evenodd" clip-rule="evenodd" d="M57.052 102.84C58.353 102.84 59.4076 101.785 59.4076 100.485C59.4076 99.1836 58.353 98.1289 57.052 98.1289C55.751 98.1289 54.6964 99.1836 54.6964 100.485C54.6964 101.785 55.751 102.84 57.052 102.84ZM57.052 104.84C59.4575 104.84 61.4076 102.89 61.4076 100.485C61.4076 98.079 59.4575 96.1289 57.052 96.1289C54.6465 96.1289 52.6964 98.079 52.6964 100.485C52.6964 102.89 54.6465 104.84 57.052 104.84Z" fill="#C3C6CD"/>
</svg>
